<svg width="1200" height="800" viewBox="0 0 1200 800" fill="none" xmlns="http://www.w3.org/2000/svg">
  <defs>
    <linearGradient id="bg" x1="0" y1="0" x2="1" y2="1">
      <stop offset="0%" stop-color="#F7E9D5"/>
      <stop offset="100%" stop-color="#F3D8A7"/>
    </linearGradient>
    <linearGradient id="plate" x1="0" y1="0" x2="1" y2="1">
      <stop offset="0%" stop-color="#D96B24"/>
      <stop offset="100%" stop-color="#C45E2A"/>
    </linearGradient>
  </defs>
  <rect width="1200" height="800" rx="80" fill="url(#bg)"/>
  <path d="M250 520C310 300 540 226 760 336C900 404 890 550 760 600C620 660 420 654 300 556C260 532 240 520 250 520Z" fill="#ffffff" opacity="0.42"/>
  <circle cx="520" cy="410" r="198" fill="#F9E3C1"/>
  <circle cx="520" cy="410" r="95" fill="url(#plate)"/>
  <circle cx="580" cy="398" r="18" fill="#F7E9D5"/>
  <circle cx="460" cy="386" r="26" fill="#F3D8A7"/>
  <circle cx="510" cy="325" r="16" fill="#8B5E34"/>
  <circle cx="490" cy="450" r="14" fill="#8B5E34"/>
  <circle cx="560" cy="478" r="10" fill="#8B5E34"/>
  <rect x="80" y="600" width="200" height="60" rx="28" fill="#5C6A37"/>
  <path d="M680 80L880 200L840 280L620 120L680 80Z" fill="#8B5E34" opacity="0.25"/>
  <path d="M830 520C760 500 610 490 540 570C520 600 540 620 570 620H830C860 620 880 590 860 560C840 530 840 540 830 520Z" fill="#5C6A37" opacity="0.18"/>
  <path d="M240 150C280 100 330 84 390 120" stroke="#8B5E34" stroke-width="16" stroke-linecap="round"/>
</svg>
